<svg width="30" height="30" viewBox="0 0 30 30" fill="none" xmlns="http://www.w3.org/2000/svg">
<path d="M11.9408 2.37038C13.4274 0.246646 16.5726 0.246647 18.0592 2.37038C18.8916 3.55961 20.3378 4.15865 21.7673 3.90635C24.3202 3.45581 26.5442 5.6798 26.0936 8.23267C25.8414 9.6622 26.4404 11.1084 27.6296 11.9408C29.7534 13.4274 29.7534 16.5726 27.6296 18.0592C26.4404 18.8916 25.8414 20.3378 26.0936 21.7673C26.5442 24.3202 24.3202 26.5442 21.7673 26.0936C20.3378 25.8414 18.8916 26.4404 18.0592 27.6296C16.5726 29.7534 13.4274 29.7534 11.9408 27.6296C11.1084 26.4404 9.6622 25.8414 8.23267 26.0936C5.6798 26.5442 3.45581 24.3202 3.90635 21.7673C4.15865 20.3378 3.55961 18.8916 2.37038 18.0592C0.246647 16.5726 0.246647 13.4274 2.37038 11.9408C3.55961 11.1084 4.15865 9.6622 3.90635 8.23267C3.45581 5.6798 5.6798 3.45581 8.23267 3.90635C9.6622 4.15865 11.1084 3.55961 11.9408 2.37038Z" fill="#6F6CF8"/>
<path d="M12.3505 2.65711C13.638 0.817738 16.362 0.817739 17.6495 2.65711C18.5934 4.00558 20.2333 4.68482 21.8542 4.39875C24.0653 4.00853 25.9915 5.93473 25.6013 8.14577C25.3152 9.76672 25.9944 11.4066 27.3429 12.3505C29.1823 13.638 29.1823 16.362 27.3429 17.6495C25.9944 18.5934 25.3152 20.2333 25.6013 21.8542C25.9915 24.0653 24.0653 25.9915 21.8542 25.6013C20.2333 25.3152 18.5934 25.9944 17.6495 27.3429C16.362 29.1823 13.638 29.1823 12.3505 27.3429C11.4066 25.9944 9.76672 25.3152 8.14577 25.6013C5.93473 25.9915 4.00853 24.0653 4.39875 21.8542C4.68482 20.2333 4.00558 18.5934 2.65711 17.6495C0.817739 16.362 0.817738 13.638 2.65711 12.3505C4.00558 11.4066 4.68482 9.76672 4.39875 8.14577C4.00853 5.93473 5.93473 4.00853 8.14577 4.39875C9.76672 4.68482 11.4066 4.00558 12.3505 2.65711Z" stroke="url(#paint0_radial)" stroke-opacity="0.15"/>
<defs>
<radialGradient id="paint0_radial" cx="0" cy="0" r="1" gradientUnits="userSpaceOnUse" gradientTransform="translate(15 15) rotate(90) scale(17)">
<stop/>
<stop offset="1" stop-opacity="0.61"/>
</radialGradient>
</defs>
</svg>
